<?xml version="1.0" encoding="utf-8"?>

<!-- Uploaded to: SVG Repo, www.svgrepo.com, Generator: SVG Repo Mixer Tools -->
<svg viewBox="0 0 24 24" fill="none" xmlns="http://www.w3.org/2000/svg">
<g id="style=bulk">
<g id="edit">
<path id="vector" d="M21.0618 5.24219L18.9405 3.12087C17.7689 1.94929 15.8694 1.94929 14.6978 3.12087L3.70656 14.1121C3.22329 14.5954 2.91952 15.2292 2.84552 15.9086L2.45151 19.5264C2.31313 20.7969 3.38571 21.8695 4.65629 21.7311L8.27401 21.3371C8.95345 21.2631 9.58725 20.9594 10.0705 20.4761L21.0618 9.48483C22.2334 8.31326 22.2334 6.41376 21.0618 5.24219Z" fill="#BFBFBF"/>
<path id="vector_2" d="M21.0618 5.24219L18.9405 3.12087C17.7689 1.94929 15.8694 1.94929 14.6978 3.12087L12.3644 5.45432L18.7283 11.8183L21.0618 9.48483C22.2334 8.31326 22.2334 6.41376 21.0618 5.24219Z" fill="#cfcfcf"/>
</g>
</g>
</svg>